<?xml version="1.0" encoding="UTF-8" standalone="no"?>
<!DOCTYPE svg PUBLIC "-//W3C//DTD SVG 1.1//EN" "http://www.w3.org/Graphics/SVG/1.1/DTD/svg11.dtd">
<svg width="100%" height="100%" viewBox="0 0 227 229" version="1.1" xmlns="http://www.w3.org/2000/svg" xmlns:xlink="http://www.w3.org/1999/xlink" xml:space="preserve" xmlns:serif="http://www.serif.com/" style="fill-rule:evenodd;clip-rule:evenodd;stroke-linejoin:round;stroke-miterlimit:2;">
    <g transform="matrix(1,0,0,1,-856.495556,-114.995556)">
        <path d="M856.5,115C932,115 1007.5,114.99 1083,115L1083,341.5C1050.1,341.4 1017.19,341.7 984.3,341.34C984.29,337.44 982.82,333.8 982.12,330.02C981.18,323.48 979.52,317.06 977.77,310.7C980.03,309.2 982.73,307.72 983.54,304.91C985.75,298.57 985.43,291.56 984.04,285.07C988.45,286.32 993.28,287.26 997.68,285.44C1000.39,283.88 999.9,280.33 999.11,277.81C997.7,274.05 995.37,270.73 993.37,267.28C997.09,265.16 1001.64,263.75 1003.87,259.78C1006.33,256.65 1007.24,251.04 1003.43,248.58C998.79,245.74 993.06,246.41 987.87,245.78C993.21,243.1 997.48,238.85 1001.79,234.81C1007.03,229.74 1010,222.66 1010.72,215.47C1014.81,213.18 1019.66,211.41 1022.2,207.21C1026.06,201.09 1025.85,192.46 1020.9,186.98C1016.8,180.94 1009.28,179.42 1003.29,176C1006.92,173.41 1011.17,170.72 1011.99,165.94C1013.19,162.94 1011.13,159.87 1008.62,158.35C1003.91,154.96 997.79,155.67 992.32,155.64C985.55,155.27 978.88,154.02 972.16,153.29C959.21,154.11 946.21,158.7 936.48,167.46C931.21,171.97 928.53,178.53 925.36,184.52C922.17,190.47 921.75,197.32 920.47,203.83C918.18,216.01 918.94,228.48 917.32,240.73C916.46,246.46 916.6,252.27 916.02,258.02C914.84,266.69 917.02,275.39 916,284.07C915.83,295.39 915.74,306.72 915.81,318.04C915.88,320.59 916.32,324.01 919.1,325.03C922.16,326.55 925.45,324.67 927.92,322.86C933.46,317.9 934.59,310.24 937.62,303.81C937,310.43 934.83,316.77 933.11,323.15C931.47,329.37 928.01,335.07 927.28,341.51C903.69,341.48 880.1,341.51 856.5,341.5C856.49,266 856.5,190.5 856.5,115Z" style="fill:rgb(252,253,222);fill-rule:nonzero;"/>
        <path d="M942.15,172.12C948.33,166.09 956.88,163.43 965.11,161.54C969.36,160.53 973.67,161.92 977.93,162.25C977.92,164.15 978.15,166.32 976.42,167.61C970.89,171.29 964.09,170.41 957.83,171.14C952.7,171.36 948.78,175.09 944.68,177.72C939.76,181.29 938.09,187.38 937.45,193.12C937.9,193.64 938.79,194.68 939.24,195.2C942.63,195.42 943.75,192.08 945.14,189.67C944.84,193.43 943.14,197.04 944.14,200.85C942.45,205.1 940.83,209.49 941.68,214.15C936.87,209.16 933.22,203.16 928.12,198.47C928.4,192.22 932.35,187.17 934.38,181.47C935.79,177.53 939.19,174.88 942.15,172.12Z" style="fill:rgb(252,253,222);fill-rule:nonzero;"/>
        <path d="M992.5,162.95C997.01,161.94 1001.72,162.51 1005.72,164.89C1003.99,167.82 1001.03,169.97 997.51,169.72C995.84,167.45 994.12,165.24 992.5,162.95Z" style="fill:rgb(252,253,222);fill-rule:nonzero;"/>
        <path d="M984.12,165.98C987.32,168.4 990.08,171.36 992.23,174.76C997.26,182.89 1007.27,185 1014.78,190.09C1016.68,193.02 1019.54,196.2 1018.26,199.99C1016.9,205.94 1010.05,207.49 1005.1,209.27C1002.79,213.29 1003.21,218.21 1000.76,222.13C997.58,221.04 994.26,218.25 990.82,219.77C989.36,221.17 989.04,223.92 990.79,225.22C992.73,226.73 995.01,227.7 997.21,228.8C992.68,232.43 988.29,236.25 983.52,239.56C978.54,243.17 973.21,246.7 970.07,252.15C967.07,245.45 960.98,240.85 957.73,234.28C955.21,228.88 950.22,225.42 947.07,220.47C948.89,212.74 948.58,204.66 950.58,196.95C951.45,193.92 951.4,190.63 952.85,187.77C954.34,184.6 956.07,181.54 957.45,178.32C963.81,177.12 970.89,179.35 976.75,175.83C979.68,174.72 981.92,172.54 983.73,170.04C983.84,168.68 983.97,167.33 984.12,165.98M956.75,202.95C957.27,208.81 963.77,211.96 969.08,211.78C973.23,212.23 976.1,207.81 975.5,204.02C973.81,199.97 967.52,205.56 966.82,200.99C966.11,197.2 969.44,194.78 972.63,193.82C972.95,192.47 973.29,191.13 973.66,189.79C972.14,188.32 970.49,185.93 968.05,186.68C960.52,187.78 956.63,196.04 956.75,202.95M955.62,226.28C958.77,228.8 962.94,230.47 967.03,230.08C970.97,230.23 972.37,225.83 974.39,223.23C973.95,220.28 973.11,216.91 970.01,215.72C966.72,214.88 963.35,214.4 960.04,213.7C954.73,214.61 951.41,222.32 955.62,226.28Z" style="fill:rgb(252,253,222);fill-rule:nonzero;"/>
        <path d="M925.13,226.94C925.49,220.19 925.58,213.42 926.72,206.75C929.69,211.86 934.65,215.38 937.74,220.43C941.93,224.88 945.24,230.09 949.62,234.38C953.12,238.72 955.15,244.13 959.03,248.21C960.77,249.99 962.28,252 963.35,254.26C950.12,258.17 936.47,253.26 923.01,254.01C923.37,244.96 924.31,235.95 925.13,226.94Z" style="fill:rgb(252,253,222);fill-rule:nonzero;"/>
        <path d="M987.13,252.96C991.06,253.23 995.04,253.36 998.84,254.55C996.41,258.35 992.15,260.63 987.75,261.21C987.52,258.46 987.38,255.7 987.13,252.96Z" style="fill:rgb(252,253,222);fill-rule:nonzero;"/>
        <path d="M922.47,261.39C928.87,260.9 935.21,262.11 941.6,262.22C940.68,277.59 935.27,292.26 929.44,306.38C928.44,310.92 925.9,314.84 922.64,318.1C921.58,308.03 923.26,297.93 922.32,287.87C923.49,279.07 922.24,270.22 922.47,261.39Z" style="fill:rgb(252,253,222);fill-rule:nonzero;"/>
        <path d="M949.91,263C954.33,263.31 958.75,262.74 963.05,261.73C959.99,266.64 959.22,272.48 956.84,277.68C955.68,280.45 954.71,283.31 953.32,285.99C951.67,281.55 952.06,276.71 950.66,272.23C949.64,269.26 949.91,266.08 949.91,263Z" style="fill:rgb(252,253,222);fill-rule:nonzero;"/>
        <path d="M963.41,296.56C967.7,292.29 971.89,287.9 976.64,284.12C978.68,290.17 979.4,297.13 976.51,303.03C975.01,303.75 973.34,304.25 972.11,305.39C970.6,308.03 970.88,311.23 971.81,314.02C974.42,323.07 975.61,332.46 978,341.56C963.31,341.43 948.61,341.51 933.91,341.52C936.85,333.49 939.04,325.2 942,317.17C943.16,310.72 950.07,308.44 954.32,304.35C957.13,301.5 960.23,298.98 963.41,296.56Z" style="fill:rgb(252,253,222);fill-rule:nonzero;"/>
        <path d="M936.48,167.46C946.21,158.7 959.21,154.11 972.16,153.29C978.88,154.02 985.55,155.27 992.32,155.64C997.79,155.67 1003.91,154.96 1008.62,158.35C1011.13,159.87 1013.19,162.94 1011.99,165.94C1011.17,170.72 1006.92,173.41 1003.29,176C1009.28,179.42 1016.8,180.94 1020.9,186.98C1025.85,192.46 1026.06,201.09 1022.2,207.21C1019.66,211.41 1014.81,213.18 1010.72,215.47C1010,222.66 1007.03,229.74 1001.79,234.81C997.48,238.85 993.21,243.1 987.87,245.78C993.06,246.41 998.79,245.74 1003.43,248.58C1007.24,251.04 1006.33,256.65 1003.87,259.78C1001.64,263.75 997.09,265.16 993.37,267.28C995.37,270.73 997.7,274.05 999.11,277.81C999.9,280.33 1000.39,283.88 997.68,285.44C993.28,287.26 988.45,286.32 984.04,285.07C985.43,291.56 985.75,298.57 983.54,304.91C982.73,307.72 980.03,309.2 977.77,310.7C979.52,317.06 981.18,323.48 982.12,330.02C982.82,333.8 984.29,337.44 984.3,341.34C984.31,341.68 984.34,342.35 984.35,342.69C982.21,342.41 980.05,342.18 978,341.56C975.61,332.46 974.42,323.07 971.81,314.02C970.88,311.23 970.6,308.03 972.11,305.39C973.34,304.25 975.01,303.75 976.51,303.03C979.4,297.13 978.68,290.17 976.64,284.12C971.89,287.9 967.7,292.29 963.41,296.56C960.23,298.98 957.13,301.5 954.32,304.35C950.07,308.44 943.16,310.72 942,317.17C939.04,325.2 936.85,333.49 933.91,341.52C932.81,344.23 929.05,342.89 927.28,341.51C928.01,335.07 931.47,329.37 933.11,323.15C934.83,316.77 937,310.43 937.62,303.81C934.59,310.24 933.46,317.9 927.92,322.86C925.45,324.67 922.16,326.55 919.1,325.03C916.32,324.01 915.88,320.59 915.81,318.04C915.74,306.72 915.83,295.39 916,284.07C917.02,275.39 914.84,266.69 916.02,258.02C916.6,252.27 916.46,246.46 917.32,240.73C918.94,228.48 918.18,216.01 920.47,203.83C921.75,197.32 922.17,190.47 925.36,184.52C928.53,178.53 931.21,171.97 936.48,167.46M942.15,172.12C939.19,174.88 935.79,177.53 934.38,181.47C932.35,187.17 928.4,192.22 928.12,198.47C933.22,203.16 936.87,209.16 941.68,214.15C940.83,209.49 942.45,205.1 944.14,200.85C943.14,197.04 944.84,193.43 945.14,189.67C943.75,192.08 942.63,195.42 939.24,195.2C938.79,194.68 937.9,193.64 937.45,193.12C938.09,187.38 939.76,181.29 944.68,177.72C948.78,175.09 952.7,171.36 957.83,171.14C964.09,170.41 970.89,171.29 976.42,167.61C978.15,166.32 977.92,164.15 977.93,162.25C973.67,161.92 969.36,160.53 965.11,161.54C956.88,163.43 948.33,166.09 942.15,172.12M992.5,162.95C994.12,165.24 995.84,167.45 997.51,169.72C1001.03,169.97 1003.99,167.82 1005.72,164.89C1001.72,162.51 997.01,161.94 992.5,162.95M984.12,165.98C983.97,167.33 983.84,168.68 983.73,170.04C981.92,172.54 979.68,174.72 976.75,175.83C970.89,179.35 963.81,177.12 957.45,178.32C956.07,181.54 954.34,184.6 952.85,187.77C951.4,190.63 951.45,193.92 950.58,196.95C948.58,204.66 948.89,212.74 947.07,220.47C950.22,225.42 955.21,228.88 957.73,234.28C960.98,240.85 967.07,245.45 970.07,252.15C973.21,246.7 978.54,243.17 983.52,239.56C988.29,236.25 992.68,232.43 997.21,228.8C995.01,227.7 992.73,226.73 990.79,225.22C989.04,223.92 989.36,221.17 990.82,219.77C994.26,218.25 997.58,221.04 1000.76,222.13C1003.21,218.21 1002.79,213.29 1005.1,209.27C1010.05,207.49 1016.9,205.94 1018.26,199.99C1019.54,196.2 1016.68,193.02 1014.78,190.09C1007.27,185 997.26,182.89 992.23,174.76C990.08,171.36 987.32,168.4 984.12,165.98M925.13,226.94C924.31,235.95 923.37,244.96 923.01,254.01C936.47,253.26 950.12,258.17 963.35,254.26C962.28,252 960.77,249.99 959.03,248.21C955.15,244.13 953.12,238.72 949.62,234.38C945.24,230.09 941.93,224.88 937.74,220.43C934.65,215.38 929.69,211.86 926.72,206.75C925.58,213.42 925.49,220.19 925.13,226.94M987.13,252.96C987.38,255.7 987.52,258.46 987.75,261.21C992.15,260.63 996.41,258.35 998.84,254.55C995.04,253.36 991.06,253.23 987.13,252.96M972.22,261.42C972.75,262.42 973.29,263.42 973.84,264.43C975.14,264.5 976.45,264.57 977.78,264.65C979.17,262.87 980.24,260.87 981.33,258.89C980.98,256.99 980.65,255.09 980.25,253.21C976.98,255.34 974.73,258.53 972.22,261.42M922.47,261.39C922.24,270.22 923.49,279.07 922.32,287.87C923.26,297.93 921.58,308.03 922.64,318.1C925.9,314.84 928.44,310.92 929.44,306.38C935.27,292.26 940.68,277.59 941.6,262.22C935.21,262.11 928.87,260.9 922.47,261.39M949.91,263C949.91,266.08 949.64,269.26 950.66,272.23C952.06,276.71 951.67,281.55 953.32,285.99C954.71,283.31 955.68,280.45 956.84,277.68C959.22,272.48 959.99,266.64 963.05,261.73C958.75,262.74 954.33,263.31 949.91,263M981.92,269.97C983.68,273.11 985.62,276.18 987.97,278.94C989.33,279.02 990.71,279.11 992.1,279.2C990.08,275.09 987.78,271.08 984.68,267.69C983.75,268.45 982.83,269.21 981.92,269.97Z" style="fill:rgb(61,37,97);fill-rule:nonzero;"/>
        <path d="M956.75,202.95C956.63,196.04 960.52,187.78 968.05,186.68C970.49,185.93 972.14,188.32 973.66,189.79C973.29,191.13 972.95,192.47 972.63,193.82C969.44,194.78 966.11,197.2 966.82,200.99C967.52,205.56 973.81,199.97 975.5,204.02C976.1,207.81 973.23,212.23 969.08,211.78C963.77,211.96 957.27,208.81 956.75,202.95Z" style="fill:rgb(61,37,97);fill-rule:nonzero;"/>
        <path d="M972.22,261.42C974.73,258.53 976.98,255.34 980.25,253.21C980.65,255.09 980.98,256.99 981.33,258.89C980.24,260.87 979.17,262.87 977.78,264.65C976.45,264.57 975.14,264.5 973.84,264.43C973.29,263.42 972.75,262.42 972.22,261.42Z" style="fill:rgb(252,252,223);fill-rule:nonzero;"/>
        <path d="M955.62,226.28C951.41,222.32 954.73,214.61 960.04,213.7C963.35,214.4 966.72,214.88 970.01,215.72C973.11,216.91 973.95,220.28 974.39,223.23C972.37,225.83 970.97,230.23 967.03,230.08C962.94,230.47 958.77,228.8 955.62,226.28Z" style="fill:rgb(236,28,52);fill-rule:nonzero;"/>
        <path d="M981.92,269.97C982.83,269.21 983.75,268.45 984.68,267.69C987.78,271.08 990.08,275.09 992.1,279.2C990.71,279.11 989.33,279.02 987.97,278.94C985.62,276.18 983.68,273.11 981.92,269.97Z" style="fill:rgb(252,252,222);fill-rule:nonzero;"/>
    </g>
</svg>
